<svg width="512" height="512" viewBox="0 0 512 512" fill="none" xmlns="http://www.w3.org/2000/svg">
<path d="M126.965 169.817V181.206C122.766 181.206 118.941 181.638 115.489 182.501C112.095 183.306 109.449 184.715 107.551 186.729C105.71 188.742 104.933 191.503 105.221 195.012L108.845 230.389C109.363 235.221 109.075 239.219 107.982 242.383C106.889 245.547 105.049 248.02 102.46 249.803C99.9289 251.587 96.6788 252.852 92.7097 253.6C96.7363 254.29 100.044 255.498 102.633 257.224C105.221 258.892 107.033 261.308 108.069 264.472C109.104 267.578 109.363 271.691 108.845 276.811L105.221 312.188C104.933 315.754 105.71 318.544 107.551 320.558C109.392 322.571 112.038 323.98 115.489 324.786C118.941 325.591 122.766 325.994 126.965 325.994V337.383C122.133 337.383 117.502 336.952 113.073 336.089C108.644 335.284 104.732 333.874 101.338 331.861C97.9443 329.848 95.3845 327.087 93.6588 323.578C91.9331 320.126 91.3579 315.754 91.9331 310.462L95.3845 277.674C95.8447 273.705 95.4708 270.368 94.2628 267.665C93.1123 264.961 90.5813 262.919 86.6697 261.538C82.8156 260.1 77.0344 259.381 69.3262 259.381V247.819C77.0344 247.819 82.8156 247.129 86.6697 245.748C90.5813 244.367 93.1123 242.325 94.2628 239.622C95.4708 236.918 95.8447 233.61 95.3845 229.699L91.9331 196.738C91.3579 191.446 91.9331 187.074 93.6588 183.622C95.3845 180.113 97.9156 177.352 101.252 175.339C104.646 173.326 108.557 171.916 112.987 171.111C117.474 170.248 122.133 169.817 126.965 169.817ZM385.102 169.817C389.934 169.817 394.565 170.248 398.994 171.111C403.424 171.916 407.335 173.326 410.729 175.339C414.123 177.352 416.683 180.113 418.409 183.622C420.192 187.074 420.767 191.446 420.134 196.738L416.683 229.699C416.223 233.61 416.712 236.918 418.15 239.622C419.645 242.325 422.349 244.367 426.261 245.748C430.172 247.129 435.666 247.819 442.741 247.819V259.381C435.723 259.381 430.23 260.1 426.261 261.538C422.349 262.919 419.645 264.961 418.15 267.665C416.712 270.368 416.223 273.705 416.683 277.674L420.134 310.462C420.71 315.754 420.134 320.126 418.409 323.578C416.683 327.087 414.123 329.848 410.729 331.861C407.393 333.874 403.481 335.284 398.994 336.089C394.565 336.952 389.934 337.383 385.102 337.383V325.994C389.302 325.994 393.098 325.591 396.492 324.786C399.943 323.98 402.618 322.571 404.517 320.558C406.415 318.544 407.191 315.754 406.846 312.188L403.222 276.811C402.705 271.691 402.992 267.578 404.085 264.472C405.178 261.308 407.134 258.892 409.953 257.224C412.829 255.556 416.597 254.405 421.256 253.773C416.769 253.025 413.088 251.73 410.211 249.89C407.393 248.049 405.408 245.547 404.258 242.383C403.107 239.219 402.762 235.221 403.222 230.389L406.846 195.012C407.191 191.503 406.415 188.742 404.517 186.729C402.618 184.715 399.972 183.306 396.578 182.501C393.184 181.638 389.359 181.206 385.102 181.206V169.817Z" fill="#FF9900"/>
<path d="M206.626 315.985C197.249 315.985 189.081 313.712 182.121 309.168C175.218 304.624 169.868 297.807 166.071 288.718C162.275 279.63 160.377 268.24 160.377 254.549C160.377 244.31 161.728 235.365 164.432 227.714C167.193 220.064 170.903 213.678 175.563 208.559C180.28 203.439 185.601 199.614 191.526 197.083C197.508 194.552 203.692 193.286 210.077 193.286C217.843 193.286 224.286 194.408 229.405 196.651C234.525 198.837 239.414 202.059 244.074 206.315L235.014 215.721C231.39 212.327 227.564 209.824 223.538 208.214C219.569 206.603 215.11 205.798 210.163 205.798C205.849 205.798 201.679 206.632 197.652 208.3C193.625 209.968 190.001 212.701 186.78 216.497C183.616 220.236 181.085 225.212 179.187 231.425C177.346 237.637 176.426 245.345 176.426 254.549C176.426 265.996 177.605 275.315 179.963 282.506C182.379 289.696 185.917 294.988 190.577 298.382C195.293 301.719 201.103 303.387 208.006 303.387C212.148 303.387 216.06 302.898 219.741 301.92C223.48 300.942 227.104 299.533 230.613 297.692V261.452H207.23L205.418 249.027H245.454V305.63C240.105 308.506 234.41 310.951 228.37 312.965C222.33 314.978 215.082 315.985 206.626 315.985ZM279.383 314V195.185H294.397V300.626H348.585L346.859 314H279.383Z" fill="white"/>
</svg>
