<svg width="25" height="25" viewBox="0 0 25 25" fill="none" xmlns="http://www.w3.org/2000/svg">
<path d="M12.5027 16.4673C11.3576 16.4673 10.2593 16.0248 9.44956 15.2372C8.63981 14.4495 8.1849 13.3812 8.1849 12.2673C8.1849 11.1534 8.63981 10.0851 9.44956 9.29749C10.2593 8.50983 11.3576 8.06734 12.5027 8.06734C13.6479 8.06734 14.7461 8.50983 15.5559 9.29749C16.3656 10.0851 16.8205 11.1534 16.8205 12.2673C16.8205 13.3812 16.3656 14.4495 15.5559 15.2372C14.7461 16.0248 13.6479 16.4673 12.5027 16.4673ZM21.6688 13.4313C21.7182 13.0473 21.7552 12.6633 21.7552 12.2673C21.7552 11.8713 21.7182 11.4753 21.6688 11.0673L24.2719 9.11134C24.5063 8.93134 24.568 8.60734 24.4199 8.34334L21.9526 4.19134C21.8046 3.92734 21.4715 3.81934 21.2001 3.92734L18.1282 5.12734C17.4867 4.65934 16.8205 4.25134 16.0433 3.95134L15.5869 0.771336C15.5618 0.629997 15.4861 0.501849 15.3732 0.409598C15.2603 0.317347 15.1175 0.26695 14.9701 0.267336H10.0354C9.72698 0.267336 9.46791 0.483336 9.41856 0.771336L8.96211 3.95134C8.1849 4.25134 7.51872 4.65934 6.87722 5.12734L3.80539 3.92734C3.53399 3.81934 3.2009 3.92734 3.05286 4.19134L0.585532 8.34334C0.425156 8.60734 0.499176 8.93134 0.733572 9.11134L3.3366 11.0673C3.28726 11.4753 3.25025 11.8713 3.25025 12.2673C3.25025 12.6633 3.28726 13.0473 3.3366 13.4313L0.733572 15.4233C0.499176 15.6033 0.425156 15.9273 0.585532 16.1913L3.05286 20.3433C3.2009 20.6073 3.53399 20.7033 3.80539 20.6073L6.87722 19.3953C7.51872 19.8753 8.1849 20.2833 8.96211 20.5833L9.41856 23.7633C9.46791 24.0513 9.72698 24.2673 10.0354 24.2673H14.9701C15.2785 24.2673 15.5375 24.0513 15.5869 23.7633L16.0433 20.5833C16.8205 20.2713 17.4867 19.8753 18.1282 19.3953L21.2001 20.6073C21.4715 20.7033 21.8046 20.6073 21.9526 20.3433L24.4199 16.1913C24.568 15.9273 24.5063 15.6033 24.2719 15.4233L21.6688 13.4313Z" fill="#FF9900"/>
</svg>
