<svg width="20" height="20" viewBox="0 0 20 20" xmlns="http://www.w3.org/2000/svg">
<path d="M10 0.292618C8.68678 0.292618 7.38642 0.551275 6.17317 1.05382C4.95991 1.55637 3.85752 2.29296 2.92893 3.22155C1.05357 5.09691 0 7.64045 0 10.2926C0 14.7126 2.87 18.4626 6.84 19.7926C7.34 19.8726 7.5 19.5626 7.5 19.2926V17.6026C4.73 18.2026 4.14 16.2626 4.14 16.2626C3.68 15.1026 3.03 14.7926 3.03 14.7926C2.12 14.1726 3.1 14.1926 3.1 14.1926C4.1 14.2626 4.63 15.2226 4.63 15.2226C5.5 16.7426 6.97 16.2926 7.54 16.0526C7.63 15.4026 7.89 14.9626 8.17 14.7126C5.95 14.4626 3.62 13.6026 3.62 9.79262C3.62 8.68262 4 7.79262 4.65 7.08262C4.55 6.83262 4.2 5.79262 4.75 4.44262C4.75 4.44262 5.59 4.17262 7.5 5.46262C8.29 5.24262 9.15 5.13262 10 5.13262C10.85 5.13262 11.71 5.24262 12.5 5.46262C14.41 4.17262 15.25 4.44262 15.25 4.44262C15.8 5.79262 15.45 6.83262 15.35 7.08262C16 7.79262 16.38 8.68262 16.38 9.79262C16.38 13.6126 14.04 14.4526 11.81 14.7026C12.17 15.0126 12.5 15.6226 12.5 16.5526V19.2926C12.5 19.5626 12.66 19.8826 13.17 19.7926C17.14 18.4526 20 14.7126 20 10.2926C20 8.9794 19.7413 7.67904 19.2388 6.46578C18.7362 5.25253 17.9997 4.15014 17.0711 3.22155C16.1425 2.29296 15.0401 1.55637 13.8268 1.05382C12.6136 0.551275 11.3132 0.292618 10 0.292618Z" fill="white"/>
</svg>
