<svg width="20" height="17" viewBox="0 0 20 17" fill="none" xmlns="http://www.w3.org/2000/svg">
<path d="M18 14.0504H16V5.30037L10 9.05037L4 5.30037V14.0504H2V2.05037H3.2L10 6.30037L16.8 2.05037H18M18 0.0503693H2C0.89 0.0503693 0 0.940369 0 2.05037V14.0504C0 14.5808 0.210714 15.0895 0.585786 15.4646C0.960859 15.8397 1.46957 16.0504 2 16.0504H18C18.5304 16.0504 19.0391 15.8397 19.4142 15.4646C19.7893 15.0895 20 14.5808 20 14.0504V2.05037C20 1.51994 19.7893 1.01123 19.4142 0.636156C19.0391 0.261083 18.5304 0.0503693 18 0.0503693Z" fill="white"/>
</svg>
