<svg width="18" height="19" viewBox="0 0 18 19" fill="none" xmlns="http://www.w3.org/2000/svg">
<path d="M16 0.0503693C16.5304 0.0503693 17.0391 0.261083 17.4142 0.636156C17.7893 1.01123 18 1.51994 18 2.05037V16.0504C18 16.5808 17.7893 17.0895 17.4142 17.4646C17.0391 17.8397 16.5304 18.0504 16 18.0504H2C1.46957 18.0504 0.960859 17.8397 0.585786 17.4646C0.210714 17.0895 0 16.5808 0 16.0504V2.05037C0 1.51994 0.210714 1.01123 0.585786 0.636156C0.960859 0.261083 1.46957 0.0503693 2 0.0503693H16ZM15.5 15.5504V10.2504C15.5 9.38576 15.1565 8.55657 14.5452 7.9452C13.9338 7.33383 13.1046 6.99037 12.24 6.99037C11.39 6.99037 10.4 7.51037 9.92 8.29037V7.18037H7.13V15.5504H9.92V10.6204C9.92 9.85037 10.54 9.22037 11.31 9.22037C11.6813 9.22037 12.0374 9.36787 12.2999 9.63042C12.5625 9.89297 12.71 10.2491 12.71 10.6204V15.5504H15.5ZM3.88 5.61037C4.32556 5.61037 4.75288 5.43337 5.06794 5.11831C5.383 4.80325 5.56 4.37593 5.56 3.93037C5.56 3.00037 4.81 2.24037 3.88 2.24037C3.43178 2.24037 3.00193 2.41842 2.68499 2.73536C2.36805 3.0523 2.19 3.48215 2.19 3.93037C2.19 4.86037 2.95 5.61037 3.88 5.61037ZM5.27 15.5504V7.18037H2.5V15.5504H5.27Z" fill="white"/>
</svg>
