<svg width="20" height="21" viewBox="0 0 20 21" fill="none" xmlns="http://www.w3.org/2000/svg">
<path d="M5.8 0.0503693H14.2C17.4 0.0503693 20 2.65037 20 5.85037V14.2504C20 15.7886 19.3889 17.2639 18.3012 18.3516C17.2135 19.4393 15.7383 20.0504 14.2 20.0504H5.8C2.6 20.0504 0 17.4504 0 14.2504V5.85037C0 4.31211 0.61107 2.83686 1.69878 1.74915C2.78649 0.661439 4.26174 0.0503693 5.8 0.0503693ZM5.6 2.05037C4.64522 2.05037 3.72955 2.42965 3.05442 3.10478C2.37928 3.77992 2 4.69559 2 5.65037V14.4504C2 16.4404 3.61 18.0504 5.6 18.0504H14.4C15.3548 18.0504 16.2705 17.6711 16.9456 16.996C17.6207 16.3208 18 15.4051 18 14.4504V5.65037C18 3.66037 16.39 2.05037 14.4 2.05037H5.6ZM15.25 3.55037C15.5815 3.55037 15.8995 3.68207 16.1339 3.91649C16.3683 4.15091 16.5 4.46885 16.5 4.80037C16.5 5.13189 16.3683 5.44983 16.1339 5.68425C15.8995 5.91867 15.5815 6.05037 15.25 6.05037C14.9185 6.05037 14.6005 5.91867 14.3661 5.68425C14.1317 5.44983 14 5.13189 14 4.80037C14 4.46885 14.1317 4.15091 14.3661 3.91649C14.6005 3.68207 14.9185 3.55037 15.25 3.55037ZM10 5.05037C11.3261 5.05037 12.5979 5.57715 13.5355 6.51484C14.4732 7.45252 15 8.72429 15 10.0504C15 11.3765 14.4732 12.6482 13.5355 13.5859C12.5979 14.5236 11.3261 15.0504 10 15.0504C8.67392 15.0504 7.40215 14.5236 6.46447 13.5859C5.52678 12.6482 5 11.3765 5 10.0504C5 8.72429 5.52678 7.45252 6.46447 6.51484C7.40215 5.57715 8.67392 5.05037 10 5.05037ZM10 7.05037C9.20435 7.05037 8.44129 7.36644 7.87868 7.92905C7.31607 8.49166 7 9.25472 7 10.0504C7 10.846 7.31607 11.6091 7.87868 12.1717C8.44129 12.7343 9.20435 13.0504 10 13.0504C10.7956 13.0504 11.5587 12.7343 12.1213 12.1717C12.6839 11.6091 13 10.846 13 10.0504C13 9.25472 12.6839 8.49166 12.1213 7.92905C11.5587 7.36644 10.7956 7.05037 10 7.05037Z" fill="white"/>
</svg>
