<svg width="14" height="21" viewBox="0 0 14 21" fill="none" xmlns="http://www.w3.org/2000/svg">
<path d="M7 10.0504C6.33696 10.0504 5.70107 9.78696 5.23223 9.31812C4.76339 8.84928 4.5 8.2134 4.5 7.55035C4.5 6.88731 4.76339 6.25143 5.23223 5.78259C5.70107 5.31375 6.33696 5.05035 7 5.05035C7.66304 5.05035 8.29893 5.31375 8.76777 5.78259C9.23661 6.25143 9.5 6.88731 9.5 7.55035C9.5 7.87866 9.43534 8.20375 9.3097 8.50706C9.18406 8.81038 8.99991 9.08597 8.76777 9.31812C8.53562 9.55027 8.26002 9.73442 7.95671 9.86005C7.65339 9.98569 7.3283 10.0504 7 10.0504ZM7 0.550354C5.14348 0.550354 3.36301 1.28785 2.05025 2.60061C0.737498 3.91336 0 5.69384 0 7.55035C0 12.8004 7 20.5504 7 20.5504C7 20.5504 14 12.8004 14 7.55035C14 5.69384 13.2625 3.91336 11.9497 2.60061C10.637 1.28785 8.85652 0.550354 7 0.550354Z" fill="white"/>
</svg>
