<svg width="79" height="36" viewBox="0 0 79 36" fill="none" xmlns="http://www.w3.org/2000/svg">
<path d="M12.4292 0.159846V2.55656C11.5455 2.55656 10.7406 2.64734 10.0143 2.82891C9.30012 2.99837 8.7433 3.29494 8.34385 3.7186C7.95651 4.14226 7.79309 4.72328 7.85362 5.46166L8.61621 12.906C8.72515 13.9228 8.66462 14.764 8.43464 15.4298C8.20465 16.0955 7.8173 16.616 7.2726 16.9913C6.73999 17.3665 6.05609 17.6328 5.22087 17.7902C6.06819 17.9354 6.7642 18.1896 7.30891 18.5528C7.85362 18.9038 8.23491 19.4122 8.45279 20.0779C8.67068 20.7316 8.72515 21.5971 8.61621 22.6744L7.85362 30.1187C7.79309 30.8692 7.95651 31.4563 8.34385 31.8799C8.7312 32.3036 9.28801 32.6001 10.0143 32.7696C10.7406 32.9391 11.5455 33.0238 12.4292 33.0238V35.4205C11.4124 35.4205 10.4379 35.3297 9.50589 35.1482C8.57384 34.9787 7.75073 34.6821 7.03656 34.2585C6.32239 33.8348 5.78373 33.2538 5.42059 32.5154C5.05746 31.7891 4.93641 30.8692 5.05746 29.7556L5.78373 22.856C5.88057 22.0207 5.80189 21.3187 5.54769 20.7498C5.3056 20.1808 4.773 19.7511 3.94989 19.4606C3.13888 19.158 1.92237 19.0067 0.300353 19.0067V16.5737C1.92237 16.5737 3.13888 16.4284 3.94989 16.1379C4.773 15.8474 5.3056 15.4177 5.54769 14.8488C5.80189 14.2799 5.88057 13.5838 5.78373 12.7607L5.05746 5.82479C4.93641 4.71117 5.05746 3.79122 5.42059 3.06495C5.78373 2.32657 6.31633 1.74555 7.0184 1.32189C7.73257 0.898226 8.55568 0.601664 9.48774 0.432199C10.4319 0.25063 11.4124 0.159846 12.4292 0.159846ZM66.7483 0.159846C67.7651 0.159846 68.7395 0.25063 69.6716 0.432199C70.6036 0.601664 71.4267 0.898226 72.1409 1.32189C72.8551 1.74555 73.3937 2.32657 73.7569 3.06495C74.1321 3.79122 74.2531 4.71117 74.12 5.82479L73.3937 12.7607C73.2969 13.5838 73.3998 14.2799 73.7024 14.8488C74.0171 15.4177 74.586 15.8474 75.4091 16.1379C76.2322 16.4284 77.3882 16.5737 78.8771 16.5737V19.0067C77.4003 19.0067 76.2444 19.158 75.4091 19.4606C74.586 19.7511 74.0171 20.1808 73.7024 20.7498C73.3998 21.3187 73.2969 22.0207 73.3937 22.856L74.12 29.7556C74.241 30.8692 74.12 31.7891 73.7569 32.5154C73.3937 33.2538 72.8551 33.8348 72.1409 34.2585C71.4388 34.6821 70.6157 34.9787 69.6716 35.1482C68.7395 35.3297 67.7651 35.4205 66.7483 35.4205V33.0238C67.6319 33.0238 68.4308 32.9391 69.145 32.7696C69.8713 32.6001 70.4341 32.3036 70.8336 31.8799C71.233 31.4563 71.3965 30.8692 71.3238 30.1187L70.5612 22.6744C70.4523 21.5971 70.5128 20.7316 70.7428 20.0779C70.9728 19.4122 71.3844 18.9038 71.9775 18.5528C72.5827 18.2017 73.3756 17.9596 74.356 17.8265C73.4119 17.6691 72.6372 17.3968 72.032 17.0094C71.4388 16.6221 71.0212 16.0955 70.7791 15.4298C70.537 14.764 70.4644 13.9228 70.5612 12.906L71.3238 5.46166C71.3965 4.72328 71.233 4.14226 70.8336 3.7186C70.4341 3.29494 69.8773 2.99837 69.1632 2.82891C68.449 2.64734 67.644 2.55656 66.7483 2.55656V0.159846Z" fill="#FF9900"/>
<path d="M29.1919 30.9176C27.2189 30.9176 25.5 30.4395 24.0354 29.4832C22.5828 28.527 21.4571 27.0926 20.6582 25.18C19.8593 23.2675 19.4598 20.8708 19.4598 17.9899C19.4598 15.8353 19.7443 13.953 20.3132 12.3431C20.8942 10.7332 21.675 9.3896 22.6554 8.31229C23.648 7.23498 24.7677 6.43002 26.0145 5.89742C27.2733 5.36482 28.5746 5.09852 29.9182 5.09852C31.5523 5.09852 32.908 5.33456 33.9853 5.80664C35.0627 6.26661 36.0915 6.94447 37.072 7.84021L35.1655 9.81931C34.403 9.10514 33.598 8.57859 32.7507 8.23966C31.9155 7.90073 30.9774 7.73127 29.9364 7.73127C29.0285 7.73127 28.1509 7.90678 27.3036 8.25782C26.4563 8.60885 25.6937 9.18382 25.0158 9.98272C24.3501 10.7695 23.8175 11.8166 23.418 13.1239C23.0307 14.4312 22.837 16.0532 22.837 17.9899C22.837 20.3987 23.0852 22.3597 23.5814 23.8727C24.0898 25.3858 24.8343 26.4994 25.8147 27.2136C26.8073 27.9157 28.0299 28.2667 29.4824 28.2667C30.354 28.2667 31.1771 28.1638 31.9518 27.958C32.7386 27.7523 33.5012 27.4557 34.2395 27.0683V19.4425H29.319L28.9377 16.8279H37.3625V28.7388C36.2368 29.344 35.0384 29.8585 33.7675 30.2821C32.4965 30.7058 30.9713 30.9176 29.1919 30.9176ZM44.5022 30.5V5.49797H47.6614V27.6857H59.064L58.7008 30.5H44.5022Z" fill="white"/>
</svg>
